<svg width="60" height="41" viewBox="0 0 60 41" fill="none" xmlns="http://www.w3.org/2000/svg">
<rect x="0.5" y="0.5" width="58.1322" height="39.5478" rx="7.5" fill="white" stroke="#D9D9D9"/>
<g clip-path="url(#clip0_293_2256)">
<path d="M8.44739 8.44727H8.91681V20.9113H8.44739V8.44727ZM9.38623 8.44727H9.85565V20.9113H9.38623V8.44727ZM12.2049 8.44727H12.6743V20.9113H12.2049V8.44727ZM21.3421 8.44727H21.8115V20.9113H21.3421V8.44727ZM24.3968 8.44727H24.8662V20.9113H24.3968V8.44727ZM27.359 8.44727H27.8284V20.9113H27.359V8.44727ZM28.1223 8.44727H28.5917V20.9113H28.1229L28.1223 8.44727ZM28.8868 8.44727H29.3562V20.9113H28.8868V8.44727ZM29.7459 8.44727H30.2153V20.9113H29.7461L29.7459 8.44727ZM30.6049 8.44727H31.0743V20.9113H30.6049V8.44727ZM32.993 8.44727H33.4624V20.9113H32.9923L32.993 8.44727ZM38.914 8.44727H39.3835V20.9113H38.914V8.44727ZM45.0903 8.44727H45.5596V20.9113H45.0901L45.0903 8.44727ZM46.7796 8.44727H47.2491V20.9113H46.7796V8.44727ZM48.001 8.44727H48.4704V20.9113H48.001V8.44727ZM48.7525 8.44727H49.2219V20.9113H48.7525V8.44727ZM15.3049 8.44727H15.7743V20.9113H15.3049V8.44727ZM10.6076 8.44727H11.4529V20.9113H10.6076V8.44727ZM16.1859 8.44727H17.031V20.9113H16.1859V8.44727ZM20.1028 8.44727H20.9479V20.9113H20.1028V8.44727ZM22.108 8.44727H22.9532V20.9113H22.108V8.44727ZM25.2595 8.44727H26.1046V20.9113H25.2595V8.44727ZM34.2442 8.44727H35.5588V20.9113H34.2442V8.44727ZM35.9614 8.44727H36.9939V20.9113H35.9603L35.9614 8.44727ZM37.7733 8.44727H38.6185V20.9113H37.7733V8.44727ZM40.1693 8.44727H41.5785V20.9113H40.1693V8.44727ZM42.929 8.44727H44.3384V20.9113H42.929V8.44727ZM13.1442 8.44727H14.8345V20.9113H13.1442V8.44727ZM17.5253 8.44727H18.8399V20.9113H17.5253V8.44727Z" fill="#010101"/>
<path d="M9.0553 31.978V24.844H11.7323C12.1797 24.8267 12.6259 24.9003 13.044 25.0603C13.3645 25.1973 13.6347 25.4302 13.8173 25.727C13.9984 26.0079 14.0956 26.3346 14.0974 26.6688C14.0975 26.9735 14.0115 27.272 13.8493 27.53C13.6667 27.8142 13.4066 28.0403 13.0998 28.1817C13.4935 28.2829 13.8434 28.5101 14.0962 28.8285C14.33 29.1394 14.4525 29.52 14.4439 29.9089C14.4467 30.2318 14.3744 30.5509 14.2326 30.841C14.1128 31.1011 13.9328 31.329 13.7074 31.5057C13.4729 31.674 13.2073 31.7942 12.9261 31.8593C12.549 31.9457 12.1627 31.9859 11.7759 31.9788L9.0553 31.978ZM10.0003 27.8419H11.543C11.8443 27.8537 12.1459 27.8259 12.4399 27.7592C12.6552 27.7046 12.846 27.5797 12.9822 27.4043C13.1089 27.222 13.1729 27.0034 13.1646 26.7814C13.1689 26.5611 13.1098 26.3442 12.9942 26.1566C12.8839 25.9785 12.7125 25.8467 12.5121 25.7859C12.1564 25.7041 11.7913 25.6705 11.4267 25.6861H10.0006L10.0003 27.8419ZM10.0003 31.1364H11.7762C11.991 31.1421 12.206 31.1308 12.419 31.1027C12.6117 31.0714 12.7967 31.0037 12.9642 30.9032C13.1171 30.8044 13.2413 30.6669 13.324 30.5047C13.4205 30.3204 13.4692 30.1147 13.4656 29.9067C13.4722 29.6584 13.4007 29.4144 13.2613 29.2089C13.1236 29.0117 12.924 28.8662 12.6942 28.7954C12.3543 28.7035 12.0025 28.6632 11.6507 28.6758H10.0003V31.1364ZM15.8236 28.5042C15.7637 27.4876 16.1062 26.4882 16.7771 25.7221C17.0932 25.39 17.4762 25.1288 17.9007 24.9556C18.3253 24.7824 18.7817 24.7012 19.2399 24.7173C19.8656 24.7088 20.4816 24.8723 21.0208 25.1898C21.545 25.4997 21.9656 25.9577 22.2298 26.5063C22.5146 27.1038 22.6568 27.7592 22.6454 28.421C22.6574 29.0937 22.5077 29.7595 22.2089 30.3625C21.9376 30.9111 21.5046 31.3633 20.9681 31.6581C20.4378 31.9504 19.8414 32.1021 19.2359 32.0986C18.6022 32.109 17.9785 31.9408 17.436 31.6132C16.914 31.2968 16.4959 30.8347 16.2331 30.2837C15.9621 29.7297 15.822 29.1209 15.8236 28.5042ZM16.7973 28.5192C16.7568 29.2615 17.007 29.9904 17.4949 30.5513C17.715 30.7923 17.9843 30.9833 18.2845 31.1114C18.5847 31.2395 18.9089 31.3016 19.2352 31.2937C19.5635 31.3021 19.8896 31.2393 20.1913 31.1098C20.4931 30.9802 20.7632 30.787 20.9832 30.5432C21.4755 29.948 21.7219 29.1873 21.672 28.4165C21.6851 27.8946 21.5861 27.376 21.3819 26.8955C21.202 26.4812 20.9021 26.1303 20.5209 25.8879C20.1399 25.6486 19.6979 25.5243 19.2481 25.5302C18.9293 25.5253 18.6127 25.5837 18.3166 25.7019C18.0205 25.8201 17.7507 25.9958 17.5229 26.2188C17.2534 26.5334 17.0501 26.8993 16.9254 27.2944C16.8008 27.6895 16.7572 28.1057 16.7973 28.518V28.5192ZM24.1935 31.9785V24.844H25.1373V31.1358H28.6505V31.978L24.1935 31.9785ZM30.1634 31.9785V24.844H35.3221V25.6861H31.1072V27.8717H35.054V28.7088H31.1072V31.1366H35.4876V31.9788L30.1634 31.9785ZM38.9759 31.9785V25.6861H36.6243V24.844H42.2792V25.6861H39.9191V31.978L38.9759 31.9785ZM43.1497 28.5042C43.0906 27.4874 43.434 26.4882 44.1056 25.7225C44.4217 25.3905 44.8047 25.1293 45.2292 24.9561C45.6537 24.7829 46.1101 24.7017 46.5683 24.7178C47.194 24.7093 47.81 24.8727 48.3492 25.1903C48.8734 25.5001 49.2941 25.9582 49.5582 26.5068C49.8431 27.1042 49.9854 27.7597 49.9738 28.4214C49.9855 29.0943 49.8355 29.7601 49.5363 30.3629C49.2642 30.9125 48.8296 31.3652 48.2915 31.6595C47.7612 31.9519 47.1648 32.1035 46.5593 32.1C45.9252 32.1104 45.301 31.9419 44.7584 31.6137C44.2374 31.2969 43.8204 30.8348 43.5584 30.2842C43.2876 29.73 43.1478 29.121 43.1497 28.5042ZM44.1234 28.5192C44.0829 29.2615 44.3332 29.9904 44.8211 30.5513C45.0412 30.7923 45.3104 30.9833 45.6106 31.1114C45.9109 31.2395 46.2351 31.3016 46.5614 31.2937C46.8905 31.3031 47.2178 31.2409 47.5207 31.1115C47.8235 30.9821 48.0947 30.7886 48.3155 30.5442C48.8077 29.949 49.0541 29.1882 49.0041 28.4174C49.0143 27.8949 48.9123 27.3763 48.705 26.8965C48.525 26.4822 48.2251 26.1313 47.8439 25.8889C47.4632 25.6497 47.0216 25.5255 46.572 25.5311C46.2532 25.5263 45.9365 25.5847 45.6404 25.7029C45.3443 25.8211 45.0745 25.9967 44.8466 26.2198C44.5776 26.5344 44.3749 26.9002 44.2507 27.2951C44.1264 27.69 44.0831 28.1059 44.1234 28.5179V28.5192Z" fill="black"/>
</g>
<defs>
<clipPath id="clip0_293_2256">
<rect width="41.5271" height="23.6529" fill="white" transform="translate(8.44739 8.44727)"/>
</clipPath>
</defs>
</svg>
