<svg width="59" height="41" viewBox="0 0 59 41" fill="none" xmlns="http://www.w3.org/2000/svg">
<path d="M8 0.5H51C55.1421 0.5 58.5 3.85786 58.5 8V33C58.5 37.1421 55.1421 40.5 51 40.5H8C3.85786 40.5 0.5 37.1421 0.5 33V8C0.5 3.85786 3.85786 0.5 8 0.5Z" fill="white" stroke="#D9D9D9"/>
<path fill-rule="evenodd" clip-rule="evenodd" d="M29.9214 29.3097C27.9127 31.0663 25.3072 32.1267 22.4601 32.1267C16.1072 32.1267 10.9572 26.847 10.9572 20.3341C10.9572 13.8212 16.1072 8.5415 22.4601 8.5415C25.3072 8.5415 27.9128 9.60195 29.9214 11.3586C31.9301 9.60196 34.5356 8.54153 37.3827 8.54153C43.7356 8.54153 48.8857 13.8213 48.8857 20.3341C48.8857 26.847 43.7356 32.1267 37.3827 32.1267C34.5356 32.1267 31.93 31.0663 29.9214 29.3097Z" fill="#ED0006"/>
<path fill-rule="evenodd" clip-rule="evenodd" d="M29.9214 29.3096C32.3947 27.1467 33.963 23.9281 33.963 20.3341C33.963 16.7401 32.3947 13.5215 29.9214 11.3586C31.93 9.60194 34.5356 8.5415 37.3827 8.5415C43.7356 8.5415 48.8856 13.8212 48.8856 20.3341C48.8856 26.847 43.7356 32.1267 37.3827 32.1267C34.5356 32.1267 31.93 31.0663 29.9214 29.3096Z" fill="#F9A000"/>
<path fill-rule="evenodd" clip-rule="evenodd" d="M29.9215 29.3098C32.3948 27.1468 33.963 23.9283 33.963 20.3343C33.963 16.7403 32.3948 13.5219 29.9215 11.3589C27.4483 13.5219 25.88 16.7403 25.88 20.3343C25.88 23.9283 27.4483 27.1468 29.9215 29.3098Z" fill="#FF5E00"/>
</svg>
