<svg width="60" height="39" viewBox="0 0 60 39" fill="none" xmlns="http://www.w3.org/2000/svg">
<rect x="0.5" y="0.499512" width="58.1322" height="37.8762" rx="7.5" fill="white" stroke="#D9D9D9"/>
<path fill-rule="evenodd" clip-rule="evenodd" d="M18.5441 23.8252H16.2469C16.0897 23.8252 15.956 23.9347 15.9315 24.0835L15.0024 29.7314C14.9839 29.8428 15.074 29.9433 15.1919 29.9433H16.2886C16.4458 29.9433 16.5795 29.8338 16.604 29.6847L16.8546 28.1614C16.8788 28.0122 17.0128 27.9028 17.1697 27.9028H17.8969C19.4101 27.9028 20.2834 27.2007 20.5116 25.8095C20.6144 25.2008 20.516 24.7225 20.2186 24.3875C19.8922 24.0198 19.313 23.8252 18.5441 23.8252ZM18.8092 25.888C18.6836 26.6784 18.0537 26.6784 17.4448 26.6784H17.0981L17.3413 25.2023C17.3557 25.1132 17.4363 25.0474 17.5304 25.0474H17.6893C18.1041 25.0474 18.4955 25.0474 18.6977 25.2741C18.8182 25.4095 18.8552 25.6104 18.8092 25.888ZM25.4111 25.8627H24.311C24.2173 25.8627 24.1363 25.9284 24.1218 26.0177L24.0732 26.3126L23.9962 26.2058C23.7581 25.8743 23.2271 25.7636 22.697 25.7636C21.4813 25.7636 20.4431 26.6463 20.2408 27.8847C20.1357 28.5023 20.2851 29.0929 20.6506 29.5048C20.9859 29.8835 21.4656 30.0414 22.0362 30.0414C23.0157 30.0414 23.5589 29.4375 23.5589 29.4375L23.5098 29.7306C23.4913 29.8427 23.5813 29.9431 23.6985 29.9431H24.6895C24.8471 29.9431 24.98 29.8336 25.0049 29.6846L25.5995 26.0746C25.6183 25.9636 25.5286 25.8627 25.4111 25.8627ZM23.8776 27.9155C23.7714 28.5181 23.2726 28.9225 22.6365 28.9225C22.3171 28.9225 22.0617 28.8243 21.8979 28.6382C21.7353 28.4534 21.6734 28.1902 21.7252 27.8972C21.8243 27.2997 22.3316 26.8821 22.958 26.8821C23.2703 26.8821 23.5243 26.9815 23.6915 27.1693C23.8591 27.359 23.9256 27.6237 23.8776 27.9155ZM30.1644 25.8625H31.2699C31.4248 25.8625 31.5151 26.029 31.4271 26.1508L27.7504 31.2392C27.6908 31.3216 27.5927 31.3706 27.488 31.3706H26.3838C26.2284 31.3706 26.1376 31.2028 26.2276 31.0807L27.3725 29.5314L26.1549 26.1053C26.1127 25.9862 26.2045 25.8625 26.3366 25.8625H27.4228C27.564 25.8625 27.6885 25.9514 27.7292 26.0809L28.3754 28.1501L29.9002 25.9968C29.9599 25.9128 30.059 25.8625 30.1644 25.8625Z" fill="#253B80"/>
<path fill-rule="evenodd" clip-rule="evenodd" d="M42.1501 29.7317L43.0929 23.9805C43.1073 23.8912 43.188 23.8255 43.2817 23.8252H44.3431C44.4603 23.8252 44.5503 23.9259 44.5318 24.0374L43.6021 29.685C43.5779 29.8341 43.4442 29.9436 43.2867 29.9436H42.3388C42.2216 29.9436 42.1316 29.8431 42.1501 29.7317ZM34.9298 23.8255H32.6322C32.4754 23.8255 32.3417 23.935 32.3171 24.0838L31.388 29.7317C31.3695 29.8431 31.4595 29.9436 31.5769 29.9436H32.7558C32.8654 29.9436 32.9591 29.867 32.9762 29.7627L33.2399 28.1617C33.2641 28.0125 33.3981 27.9031 33.5549 27.9031H34.2818C35.7954 27.9031 36.6685 27.201 36.8968 25.8098C36.9999 25.2011 36.9009 24.7228 36.6037 24.3878C36.2774 24.0201 35.6987 23.8255 34.9298 23.8255ZM35.1949 25.8883C35.0696 26.6786 34.4397 26.6787 33.8304 26.6787H33.4841L33.7276 25.2026C33.7421 25.1135 33.822 25.0477 33.9163 25.0477H34.0752C34.4898 25.0477 34.8815 25.0477 35.0836 25.2744C35.2042 25.4098 35.2409 25.6107 35.1949 25.8883ZM41.7962 25.863H40.6968C40.6023 25.863 40.5221 25.9287 40.508 26.018L40.4593 26.3129L40.3821 26.2061C40.1439 25.8746 39.6132 25.7639 39.0832 25.7639C37.8674 25.7639 36.8295 26.6466 36.6273 27.885C36.5225 28.5026 36.6713 29.0932 37.0367 29.5051C37.3727 29.8838 37.8517 30.0417 38.4224 30.0417C39.4018 30.0417 39.945 29.4378 39.945 29.4378L39.896 29.7309C39.8775 29.843 39.9675 29.9434 40.0855 29.9434H41.076C41.2328 29.9434 41.3665 29.8339 41.3911 29.6849L41.986 26.0749C42.0041 25.9639 41.9141 25.863 41.7962 25.863ZM40.2628 27.9158C40.1573 28.5184 39.6579 28.9228 39.0216 28.9228C38.7028 28.9228 38.4469 28.8246 38.2829 28.6385C38.1203 28.4537 38.0593 28.1905 38.1104 27.8975C38.21 27.3 38.7166 26.8824 39.3431 26.8824C39.6555 26.8824 39.9094 26.9818 40.0768 27.1696C40.245 27.3593 40.3115 27.624 40.2628 27.9158Z" fill="#179BD7"/>
<path d="M27.0457 21.8048L27.3281 20.0849L26.699 20.0709H23.6951L25.7827 7.37948C25.7891 7.34116 25.8102 7.30543 25.841 7.28007C25.8718 7.2547 25.9112 7.24072 25.9523 7.24072H31.0174C32.699 7.24072 33.8594 7.57622 34.4654 8.2384C34.7494 8.54905 34.9303 8.87367 35.0178 9.23091C35.1095 9.60577 35.1112 10.0536 35.0215 10.5998L35.015 10.6397V10.9897L35.2992 11.144C35.5384 11.2656 35.7284 11.4049 35.8742 11.5644C36.1173 11.83 36.2744 12.1675 36.3408 12.5678C36.4094 12.9794 36.3867 13.4691 36.2744 14.0236C36.1448 14.6615 35.9353 15.217 35.6523 15.6716C35.392 16.0905 35.0604 16.4378 34.6668 16.7071C34.291 16.9629 33.8444 17.157 33.3395 17.2813C32.8501 17.4034 32.2924 17.4651 31.6806 17.4651H31.2864C31.0045 17.4651 30.7307 17.5624 30.5158 17.7369C30.3004 17.915 30.1577 18.1583 30.114 18.4245L30.0843 18.5793L29.5853 21.6106L29.5626 21.7219C29.5567 21.7572 29.5465 21.7748 29.5314 21.7867C29.5179 21.7975 29.4984 21.8048 29.4795 21.8048H27.0457Z" fill="#253B80"/>
<path d="M35.5679 10.6802C35.5528 10.7728 35.5356 10.8676 35.5161 10.9649C34.848 14.2531 32.5628 15.389 29.644 15.389H28.158C27.8011 15.389 27.5003 15.6375 27.4447 15.9751L26.6838 20.6017L26.4683 21.9131C26.4321 22.1347 26.6104 22.3345 26.8436 22.3345H29.4794C29.7916 22.3345 30.0566 22.1171 30.1057 21.822L30.1317 21.6935L30.628 18.674L30.6599 18.5085C30.7084 18.2123 30.974 17.9949 31.2862 17.9949H31.6804C34.234 17.9949 36.2332 17.0008 36.8175 14.1242C37.0616 12.9225 36.9352 11.9191 36.2893 11.2134C36.0939 11.0006 35.8514 10.8241 35.5679 10.6802Z" fill="#179BD7"/>
<path d="M34.869 10.4135C34.767 10.385 34.6616 10.3591 34.5536 10.3358C34.4451 10.313 34.3338 10.2928 34.2194 10.2752C33.8186 10.2131 33.3796 10.1836 32.9093 10.1836H28.9392C28.8414 10.1836 28.7486 10.2048 28.6655 10.2431C28.4824 10.3275 28.3463 10.4937 28.3134 10.6972L27.4687 15.8259L27.4445 15.9756C27.5001 15.638 27.8009 15.3895 28.1578 15.3895H29.6438C32.5626 15.3895 34.848 14.253 35.5159 10.9654C35.5358 10.868 35.5526 10.7733 35.5677 10.6806C35.3987 10.5947 35.2156 10.5212 35.0185 10.4585C34.97 10.443 34.9198 10.428 34.869 10.4135Z" fill="#222D65"/>
<path d="M28.3135 10.697C28.3464 10.4935 28.4826 10.3274 28.6655 10.2435C28.7493 10.2052 28.8417 10.1839 28.9393 10.1839H32.9095C33.3799 10.1839 33.8188 10.2134 34.2194 10.2756C34.334 10.2932 34.4453 10.3134 34.5538 10.3361C34.6618 10.3595 34.7671 10.3853 34.8692 10.4138C34.9199 10.4283 34.9701 10.4433 35.0192 10.4583C35.2163 10.521 35.3994 10.595 35.5684 10.6805C35.7672 9.46531 35.5668 8.63797 34.8816 7.88879C34.1262 7.06403 32.7626 6.71094 31.0179 6.71094H25.9526C25.5961 6.71094 25.2922 6.95944 25.2371 7.29753L23.1274 20.1194C23.0857 20.373 23.2898 20.602 23.5565 20.602H26.6838L27.4689 15.8258L28.3135 10.697Z" fill="#253B80"/>
</svg>
