<svg width="60" height="39" viewBox="0 0 60 39" fill="none" xmlns="http://www.w3.org/2000/svg">
<rect x="0.5" y="0.499512" width="58.1322" height="37.8762" rx="7.5" fill="white" stroke="#D9D9D9"/>
<path fill-rule="evenodd" clip-rule="evenodd" d="M28.0593 15.8383C27.7112 15.8382 27.3664 15.9038 27.0447 16.0315C26.723 16.1592 26.4307 16.3464 26.1845 16.5824C25.9383 16.8184 25.743 17.0985 25.6097 17.4069C25.4765 17.7153 25.4079 18.0458 25.4079 18.3796V26.9449C25.4079 27.1169 25.2625 27.2563 25.083 27.2563C24.9036 27.2563 24.7582 27.1169 24.7582 26.9449V18.3796C24.7582 17.964 24.8436 17.5525 25.0095 17.1685C25.1754 16.7845 25.4186 16.4357 25.7252 16.1418C26.0317 15.848 26.3957 15.6149 26.7962 15.4559C27.1967 15.297 27.626 15.2152 28.0594 15.2153C28.0594 15.2153 28.0595 15.2153 28.0594 15.2153H30.6948C31.568 15.2171 32.4048 15.5509 33.0217 16.1435C33.6385 16.7361 33.9849 17.5391 33.9849 18.3763V20.1993C33.9849 21.0387 33.6371 21.8438 33.018 22.4374C32.3988 23.031 31.5592 23.3644 30.6836 23.3644H26.9572C26.7778 23.3644 26.6324 23.225 26.6324 23.053C26.6324 22.8809 26.7778 22.7415 26.9572 22.7415H30.6836C31.3869 22.7415 32.0613 22.4737 32.5585 21.9969C33.0558 21.5201 33.3351 20.8735 33.3351 20.1993V18.3763C33.3351 17.7041 33.057 17.0593 32.5618 16.5835C32.0666 16.1077 31.3948 15.8397 30.6938 15.8383H28.0593Z" fill="#939598"/>
<path fill-rule="evenodd" clip-rule="evenodd" d="M34.0746 15.5248C34.0746 15.3528 34.22 15.2134 34.3994 15.2134H35.5412C35.9513 15.2134 36.3447 15.3696 36.6347 15.6477C36.9247 15.9257 37.0877 16.3029 37.0877 16.6961V23.0956C37.0877 23.2677 36.9422 23.4071 36.7628 23.4071C36.5834 23.4071 36.4379 23.2677 36.4379 23.0956V16.6961C36.4379 16.4681 36.3435 16.2494 36.1753 16.0881C36.0071 15.9269 35.779 15.8363 35.5412 15.8363H34.3994C34.22 15.8363 34.0746 15.6969 34.0746 15.5248Z" fill="#939598"/>
<path d="M36.5162 14.5347L35.998 14.0368C35.9673 14.0074 35.943 13.9725 35.9264 13.9342C35.9098 13.8958 35.9012 13.8546 35.9012 13.8131C35.9012 13.7715 35.9098 13.7304 35.9264 13.692C35.943 13.6536 35.9673 13.6187 35.998 13.5894L36.5162 13.0923C36.5468 13.0629 36.5831 13.0396 36.6231 13.0236C36.6631 13.0077 36.706 12.9995 36.7493 12.9995C36.7927 12.9995 36.8356 13.0077 36.8756 13.0236C36.9156 13.0396 36.9519 13.0629 36.9825 13.0923L37.5016 13.5894C37.5322 13.6187 37.5566 13.6536 37.5732 13.692C37.5898 13.7304 37.5983 13.7715 37.5983 13.8131C37.5983 13.8546 37.5898 13.8958 37.5732 13.9342C37.5566 13.9725 37.5322 14.0074 37.5016 14.0368L36.9825 14.5347C36.9519 14.5641 36.9156 14.5874 36.8756 14.6034C36.8356 14.6193 36.7927 14.6275 36.7493 14.6275C36.706 14.6275 36.6631 14.6193 36.6231 14.6034C36.5831 14.5874 36.5468 14.5641 36.5162 14.5347Z" fill="#32BCAD"/>
<path fill-rule="evenodd" clip-rule="evenodd" d="M44.9275 20.0321C44.8546 20.0321 44.7825 20.0455 44.7152 20.0716C44.6479 20.0976 44.5868 20.1359 44.5354 20.184L44.5349 20.1845L41.8809 22.6595C41.8808 22.6595 41.8809 22.6595 41.8809 22.6595C41.4072 23.1013 40.7648 23.3497 40.095 23.3498H38.9602C38.7808 23.3498 38.6354 23.214 38.6354 23.0466C38.6354 22.8792 38.7808 22.7435 38.9602 22.7435H40.0949C40.0949 22.7435 40.0949 22.7435 40.0949 22.7435C40.5924 22.7434 41.0696 22.5589 41.4215 22.2307L44.0751 19.7562C44.0752 19.7561 44.0753 19.756 44.0754 19.7559C44.1871 19.6513 44.3198 19.5683 44.466 19.5117C44.6123 19.455 44.7691 19.4258 44.9275 19.4258C45.0859 19.4258 45.2427 19.455 45.389 19.5117C45.5351 19.5683 45.6678 19.6513 45.7795 19.7558C45.7796 19.7559 45.7797 19.756 45.7799 19.7562L48.4263 22.2215L48.4265 22.2218C48.6007 22.3843 48.8075 22.5133 49.0351 22.6013C49.2627 22.6892 49.5066 22.7345 49.753 22.7345H50.6752C50.8546 22.7345 51 22.8702 51 23.0376C51 23.205 50.8546 23.3407 50.6752 23.3407H49.7531C49.753 23.3407 49.7531 23.3407 49.7531 23.3407C49.4214 23.3408 49.0929 23.2798 48.7864 23.1614C48.4801 23.043 48.2017 22.8694 47.9672 22.6506C47.9672 22.6506 47.9672 22.6506 47.9672 22.6506C47.9672 22.6505 47.9671 22.6504 47.967 22.6504L45.3202 20.1846L45.3196 20.184C45.2681 20.1359 45.207 20.0976 45.1398 20.0716C45.0725 20.0455 45.0003 20.0321 44.9275 20.0321Z" fill="#939598"/>
<path fill-rule="evenodd" clip-rule="evenodd" d="M44.8954 18.4816C44.8225 18.4816 44.7504 18.4682 44.6831 18.4421C44.6158 18.416 44.5547 18.3778 44.5033 18.3296L44.5028 18.3291L41.8487 15.8542C41.8487 15.8542 41.8488 15.8542 41.8487 15.8542C41.375 15.4123 40.7327 15.164 40.0629 15.1639L38.9281 15.1639C38.7487 15.1639 38.6033 15.2996 38.6033 15.4671C38.6033 15.6345 38.7487 15.7702 38.9281 15.7702L40.0628 15.7702C40.0627 15.7702 40.0628 15.7702 40.0628 15.7702C40.5603 15.7703 41.0375 15.9547 41.3894 16.283L44.043 18.7575C44.0431 18.7576 44.0432 18.7577 44.0433 18.7578C44.155 18.8624 44.2877 18.9454 44.4339 19.002C44.5802 19.0587 44.737 19.0879 44.8954 19.0879C45.0538 19.0879 45.2106 19.0587 45.3569 19.002C45.503 18.9454 45.6357 18.8624 45.7474 18.7579C45.7475 18.7578 45.7476 18.7576 45.7478 18.7575L48.3942 16.2921L48.3944 16.2919C48.5686 16.1293 48.7754 16.0004 49.003 15.9124C49.2306 15.8244 49.4745 15.7792 49.7209 15.7792L50.6431 15.7792C50.8225 15.7792 50.9679 15.6435 50.9679 15.4761C50.9679 15.3086 50.8225 15.1729 50.6431 15.1729L49.721 15.1729C49.7209 15.1729 49.721 15.1729 49.721 15.1729C49.3893 15.1729 49.0608 15.2338 48.7543 15.3523C48.448 15.4707 48.1696 15.6443 47.9351 15.8631C47.9351 15.8631 47.9351 15.8631 47.9351 15.8631C47.9351 15.8631 47.935 15.8632 47.9349 15.8633L45.2881 18.329L45.2875 18.3296C45.236 18.3778 45.1749 18.416 45.1077 18.4421C45.0404 18.4682 44.9682 18.4816 44.8954 18.4816Z" fill="#939598"/>
<path d="M18.3188 24.6634C18.0386 24.6642 17.7611 24.6117 17.5022 24.509C17.2434 24.4062 17.0084 24.2552 16.8108 24.0647L14.6337 21.9823C14.5568 21.9116 14.4543 21.8721 14.3478 21.8721C14.2412 21.8721 14.1388 21.9116 14.0619 21.9823L11.8768 24.0765C11.6793 24.267 11.4443 24.418 11.1854 24.5207C10.9266 24.6235 10.6491 24.676 10.3689 24.6752H9.94031L12.6971 27.3192C13.1108 27.7155 13.6717 27.9381 14.2565 27.9381C14.8412 27.9381 15.4021 27.7155 15.8158 27.3192L18.5805 24.6676L18.3188 24.6634Z" fill="#32BCAD"/>
<path d="M10.3688 17.2803C10.649 17.2797 10.9265 17.3323 11.1853 17.4351C11.4441 17.5378 11.6791 17.6887 11.8768 17.879L14.0619 19.974C14.1378 20.0466 14.2406 20.0873 14.3477 20.0873C14.4549 20.0873 14.5577 20.0466 14.6336 19.974L16.8108 17.8866C17.0084 17.6963 17.2435 17.5454 17.5023 17.4426C17.7611 17.3399 18.0386 17.2873 18.3187 17.2879H18.5822L15.8175 14.6372C15.6128 14.4407 15.3697 14.2849 15.1021 14.1786C14.8346 14.0723 14.5478 14.0176 14.2582 14.0176C13.9685 14.0176 13.6817 14.0723 13.4142 14.1786C13.1466 14.2849 12.9036 14.4407 12.6988 14.6372L9.94202 17.2803H10.3688Z" fill="#32BCAD"/>
<path d="M20.8682 19.4806L19.1996 17.8807C19.1618 17.8952 19.1216 17.9029 19.081 17.9034H18.3213C17.9259 17.905 17.5471 18.0563 17.2674 18.3245L15.0867 20.4077C14.9898 20.5007 14.8747 20.5745 14.7479 20.6248C14.6212 20.6751 14.4853 20.7009 14.3481 20.7007C14.071 20.7012 13.805 20.5961 13.6087 20.4085L11.4236 18.3135C11.1439 18.0454 10.7651 17.8941 10.3697 17.8925H9.43611C9.39756 17.8918 9.35946 17.8844 9.32369 17.8706L7.64624 19.4789C7.44137 19.6752 7.27885 19.9082 7.16796 20.1648C7.05708 20.4213 7 20.6963 7 20.9739C7 21.2516 7.05708 21.5266 7.16796 21.7831C7.27885 22.0396 7.44137 22.2727 7.64624 22.469L9.32369 24.0773C9.35946 24.0635 9.39756 24.0561 9.43611 24.0554H10.3697C10.7651 24.0536 11.1438 23.9023 11.4236 23.6344L13.6087 21.5394C13.8078 21.3572 14.0725 21.2556 14.3477 21.2556C14.6229 21.2556 14.8876 21.3572 15.0867 21.5394L17.2639 23.6268C17.5437 23.8947 17.9224 24.046 18.3178 24.0478H19.0775C19.1182 24.0482 19.1585 24.0562 19.1961 24.0714L20.8647 22.4715C21.2781 22.0749 21.5102 21.5372 21.5102 20.9765C21.5102 20.4158 21.2781 19.8781 20.8647 19.4814" fill="#32BCAD"/>
<path d="M27.3516 26.2167C27.2133 26.2226 27.0761 26.2427 26.9423 26.2765V26.7989C27.0447 26.8334 27.1526 26.8508 27.2611 26.8502C27.5343 26.8502 27.6634 26.7618 27.6634 26.5309C27.6634 26.3144 27.5571 26.2167 27.3516 26.2167ZM26.8501 27.1864V26.1544H26.9256L26.9335 26.199C27.0728 26.1633 27.2155 26.1412 27.3595 26.1333C27.4592 26.1267 27.5581 26.1541 27.6388 26.2108C27.6829 26.252 27.7168 26.3021 27.7381 26.3575C27.7594 26.4129 27.7675 26.4722 27.7617 26.5309C27.7669 26.5965 27.7533 26.6622 27.7224 26.7209C27.6914 26.7796 27.6443 26.829 27.5861 26.8637C27.4876 26.9103 27.3788 26.9334 27.269 26.9311C27.158 26.9305 27.0476 26.9143 26.9414 26.8831V27.1864H26.8501Z" fill="#939598"/>
<path d="M28.4468 26.2138C28.1737 26.2138 28.0525 26.2981 28.0525 26.5264C28.0525 26.7547 28.1728 26.8499 28.4468 26.8499C28.7208 26.8499 28.8403 26.7657 28.8403 26.5382C28.8403 26.3107 28.7199 26.2138 28.4468 26.2138ZM28.7981 26.8499C28.693 26.9123 28.5702 26.9417 28.4468 26.9341C28.3235 26.9412 28.2009 26.9118 28.0955 26.8499C28.0463 26.8124 28.0077 26.7637 27.9832 26.7082C27.9586 26.6527 27.949 26.5923 27.955 26.5323C27.9494 26.4722 27.9592 26.4117 27.9837 26.3562C28.0082 26.3007 28.0466 26.2518 28.0955 26.2138C28.2007 26.1515 28.3234 26.122 28.4468 26.1296C28.5702 26.1222 28.6929 26.1516 28.7981 26.2138C28.847 26.2514 28.8854 26.3 28.9099 26.3553C28.9344 26.4105 28.9443 26.4708 28.9386 26.5306C28.9446 26.5908 28.935 26.6515 28.9104 26.7073C28.8859 26.763 28.8473 26.812 28.7981 26.8499Z" fill="#939598"/>
<path d="M30.0899 26.9096L29.786 26.2828H29.7799L29.4804 26.9096H29.4022L29.0773 26.1514H29.1792L29.4488 26.7858H29.4549L29.7483 26.1514H29.8361L30.1373 26.7858H30.1435L30.4069 26.1514H30.5053L30.1812 26.9096H30.0899Z" fill="#939598"/>
<path d="M31.0858 26.2121C30.8328 26.2121 30.7477 26.32 30.7345 26.4758H31.4424C31.4353 26.3031 31.3431 26.2121 31.0911 26.2121H31.0858ZM31.0911 26.9308C30.9747 26.9426 30.858 26.9126 30.7635 26.8465C30.7181 26.8066 30.6827 26.7574 30.6599 26.7026C30.6371 26.6477 30.6274 26.5886 30.6317 26.5297C30.6283 26.4686 30.6398 26.4075 30.6652 26.3514C30.6907 26.2952 30.7294 26.2455 30.7784 26.2062C30.8703 26.1512 30.9776 26.1248 31.0858 26.1304C31.1962 26.1239 31.3061 26.1494 31.4011 26.2037C31.5152 26.277 31.5372 26.4059 31.5372 26.5525H30.7283C30.7283 26.7075 30.7845 26.8457 31.0902 26.8457C31.2271 26.8425 31.3634 26.8279 31.4977 26.8019V26.8811C31.3612 26.9084 31.2225 26.9242 31.0832 26.9282" fill="#939598"/>
<path d="M31.8008 26.9097V26.1514H31.8763L31.8842 26.1961C32.0105 26.1563 32.1421 26.1341 32.275 26.1304H32.2865V26.2146H32.2645C32.1383 26.2173 32.0132 26.2374 31.893 26.2744V26.908L31.8008 26.9097Z" fill="#939598"/>
<path d="M32.8212 26.2125C32.5683 26.2125 32.4822 26.3203 32.4699 26.4762H33.1786C33.1707 26.3035 33.0785 26.2125 32.8273 26.2125H32.8212ZM32.8273 26.9311C32.711 26.9428 32.5944 26.9128 32.4998 26.8469C32.4563 26.8065 32.4227 26.7574 32.4014 26.703C32.3801 26.6487 32.3717 26.5905 32.3768 26.5327C32.3734 26.4715 32.3848 26.4104 32.4103 26.3543C32.4358 26.2981 32.4745 26.2484 32.5235 26.2091C32.6154 26.1542 32.7227 26.1277 32.8308 26.1333C32.941 26.1268 33.0505 26.1524 33.1453 26.2066C33.2594 26.2799 33.2814 26.4088 33.2814 26.5554H32.4734C32.4734 26.7104 32.5296 26.8486 32.8352 26.8486C32.9721 26.8454 33.1085 26.8307 33.2427 26.8048V26.884C33.106 26.9113 32.967 26.9271 32.8273 26.9311Z" fill="#939598"/>
<path d="M34.2801 26.2646C34.1779 26.2304 34.0704 26.2133 33.9622 26.2141C33.689 26.2141 33.5591 26.3025 33.5591 26.5325C33.5591 26.7625 33.6653 26.8468 33.8717 26.8468C34.0095 26.8406 34.1463 26.8211 34.2801 26.7887V26.2646ZM34.2977 26.91L34.2898 26.8645C34.1505 26.9004 34.0078 26.9227 33.8638 26.931C33.7639 26.9384 33.6646 26.9105 33.5845 26.8527C33.5401 26.8117 33.5059 26.7616 33.4844 26.7062C33.463 26.6508 33.4549 26.5914 33.4607 26.5325C33.4555 26.4672 33.4691 26.4018 33.5001 26.3434C33.5311 26.285 33.5782 26.2359 33.6363 26.2014C33.7351 26.1537 33.8446 26.1303 33.9551 26.1332C34.0656 26.1344 34.1753 26.1506 34.281 26.1812V25.835H34.3732V26.91H34.2977Z" fill="#939598"/>
<path d="M35.7256 26.2166C35.5873 26.2226 35.4501 26.2426 35.3163 26.2764V26.7971C35.4184 26.8329 35.5264 26.8508 35.6351 26.8502C35.9083 26.8502 36.0374 26.7617 36.0374 26.5309C36.0374 26.3143 35.9311 26.2166 35.7256 26.2166ZM35.961 26.8636C35.8625 26.9102 35.7537 26.9333 35.6439 26.931C35.5244 26.9299 35.4058 26.9105 35.2926 26.8737V26.91H35.2294V25.835H35.3172V26.193C35.4539 26.1596 35.5936 26.1387 35.7344 26.1307C35.8341 26.1241 35.933 26.1515 36.0136 26.2082C36.0578 26.2493 36.0917 26.2995 36.113 26.3549C36.1343 26.4103 36.1423 26.4695 36.1366 26.5283C36.1418 26.5939 36.1282 26.6596 36.0972 26.7183C36.0663 26.7769 36.0191 26.8263 35.961 26.8611" fill="#939598"/>
<path d="M36.2525 27.2039V27.1197C36.2972 27.1197 36.3403 27.1272 36.3693 27.1272C36.4226 27.1314 36.4759 27.1184 36.5207 27.0901C36.5654 27.0619 36.599 27.0201 36.616 26.9714L36.6459 26.9116L36.234 26.1533H36.3403L36.6916 26.8054H36.6977L37.0332 26.1533H37.1377L36.6986 27.0017C36.6169 27.1559 36.53 27.2064 36.3693 27.2064C36.3303 27.2081 36.2913 27.2073 36.2525 27.2039Z" fill="#939598"/>
<path d="M38.4096 26.4782H38.1031V26.7436H38.4105C38.6213 26.7436 38.7012 26.7209 38.7012 26.6097C38.7012 26.4985 38.5914 26.4782 38.4096 26.4782ZM38.3534 26.0486H38.1031V26.3182H38.3543C38.5624 26.3182 38.645 26.2946 38.645 26.1817C38.645 26.0688 38.5405 26.0486 38.3534 26.0486ZM38.8277 26.838C38.7153 26.9062 38.5791 26.9096 38.3315 26.9096H37.8651V25.8843H38.32C38.5343 25.8843 38.6652 25.8843 38.7741 25.95C38.8104 25.9708 38.8399 26.0009 38.8593 26.0369C38.8787 26.0729 38.8872 26.1135 38.8839 26.1539C38.8866 26.2045 38.8714 26.2545 38.8408 26.2957C38.8102 26.337 38.766 26.3672 38.7153 26.3813V26.3872C38.8523 26.4167 38.941 26.4841 38.941 26.6299C38.9443 26.6713 38.9354 26.7127 38.9154 26.7495C38.8954 26.7863 38.865 26.817 38.8277 26.838Z" fill="#939598"/>
<path d="M39.8745 26.5923C39.7867 26.5847 39.6892 26.5805 39.5909 26.5805C39.4302 26.5805 39.3739 26.6116 39.3739 26.6824C39.3739 26.7532 39.4205 26.7835 39.5434 26.7835C39.6551 26.7798 39.7661 26.7648 39.8745 26.7389V26.5923ZM39.9211 26.9099L39.9149 26.8644C39.7755 26.9024 39.632 26.9247 39.4872 26.9309C39.4038 26.9363 39.3207 26.9169 39.2492 26.8753C39.22 26.8542 39.1967 26.8264 39.1814 26.7945C39.1661 26.7626 39.1592 26.7276 39.1614 26.6925C39.1594 26.6495 39.171 26.607 39.1947 26.5705C39.2183 26.5339 39.253 26.5051 39.294 26.4878C39.3885 26.4539 39.4893 26.4395 39.59 26.4457C39.6726 26.4457 39.7832 26.4499 39.8754 26.4558V26.4457C39.8754 26.3277 39.7946 26.289 39.5724 26.289C39.4846 26.289 39.3827 26.2932 39.2826 26.3024V26.1491C39.3933 26.1407 39.518 26.1348 39.6207 26.1348C39.7475 26.1241 39.8749 26.1483 39.9878 26.2047C40.0757 26.2662 40.095 26.3513 40.095 26.4642V26.9116L39.9211 26.9099Z" fill="#939598"/>
<path d="M41.1234 26.9098V26.4885C41.1234 26.3512 41.0496 26.3015 40.9187 26.3015C40.8101 26.306 40.7022 26.3221 40.5973 26.3495V26.9064H40.3804V26.1482H40.556L40.5639 26.1953C40.701 26.1572 40.8421 26.1343 40.9846 26.1271C41.0817 26.1199 41.1781 26.1475 41.2551 26.2046C41.2871 26.2354 41.3115 26.2726 41.3267 26.3135C41.3419 26.3545 41.3474 26.3981 41.3429 26.4414V26.9039L41.1234 26.9098Z" fill="#939598"/>
<path d="M41.9612 26.931C41.8566 26.9388 41.7526 26.9104 41.6679 26.851C41.623 26.8103 41.5885 26.7602 41.5669 26.7048C41.5453 26.6493 41.5372 26.5898 41.5432 26.5308C41.539 26.4683 41.5516 26.4059 41.5797 26.3494C41.6079 26.2929 41.6506 26.2443 41.7039 26.2081C41.8092 26.1515 41.9295 26.1254 42.05 26.1332C42.1378 26.1332 42.23 26.1391 42.3275 26.1475V26.3092C42.2484 26.3025 42.1518 26.2958 42.0763 26.2958C41.8673 26.2958 41.7689 26.359 41.7689 26.5325C41.7689 26.7061 41.8427 26.7659 42.0139 26.7659C42.1253 26.7626 42.2361 26.7496 42.345 26.7271V26.883C42.219 26.9108 42.0905 26.9268 41.9612 26.931Z" fill="#939598"/>
<path d="M42.9966 26.2913C42.7876 26.2913 42.6954 26.3545 42.6954 26.5263C42.6954 26.6982 42.7832 26.7715 42.9966 26.7715C43.21 26.7715 43.2943 26.71 43.2943 26.5381C43.2943 26.3663 43.2065 26.2913 42.9966 26.2913ZM43.3743 26.8507C43.2595 26.913 43.128 26.9408 42.9966 26.9307C42.8647 26.9405 42.7327 26.9127 42.6172 26.8507C42.5658 26.8145 42.525 26.7662 42.499 26.7103C42.473 26.6545 42.4626 26.5931 42.4688 26.5322C42.4626 26.4711 42.473 26.4095 42.499 26.3534C42.525 26.2973 42.5658 26.2486 42.6172 26.2121C42.7328 26.1504 42.8648 26.1228 42.9966 26.1329C43.1279 26.1232 43.2592 26.1508 43.3743 26.2121C43.4253 26.2485 43.4657 26.2969 43.4914 26.3528C43.5171 26.4086 43.5273 26.4698 43.5209 26.5305C43.5271 26.5915 43.5169 26.6529 43.4912 26.709C43.4655 26.7651 43.4253 26.8139 43.3743 26.8507Z" fill="#939598"/>
<path d="M44.7909 26.931C44.6539 26.9393 44.5181 26.9014 44.4071 26.824C44.2789 26.7229 44.2402 26.5653 44.2402 26.396C44.2356 26.3118 44.2531 26.2278 44.291 26.1517C44.3289 26.0757 44.386 26.0099 44.4571 25.9604C44.5951 25.8872 44.7521 25.8536 44.9094 25.8635C45.028 25.8635 45.1492 25.8711 45.2818 25.8812V26.0657C45.1685 26.0565 45.028 26.0489 44.9191 26.0489C44.6143 26.0489 44.4852 26.1601 44.4852 26.396C44.4852 26.6319 44.6047 26.7448 44.8295 26.7448C44.9899 26.7397 45.1494 26.7191 45.3055 26.6833V26.8669C45.1366 26.9049 44.9642 26.9266 44.7909 26.9318" fill="#939598"/>
<path d="M45.9518 26.2676C45.7691 26.2676 45.6989 26.3299 45.6883 26.4454H46.2153C46.2091 26.3224 46.1345 26.2676 45.9518 26.2676ZM45.9193 26.9306C45.8012 26.9409 45.6831 26.9111 45.5856 26.8464C45.541 26.8063 45.5064 26.7571 45.4845 26.7024C45.4626 26.6476 45.4539 26.5889 45.4591 26.5304C45.4556 26.4699 45.4672 26.4095 45.4929 26.3542C45.5185 26.2988 45.5575 26.2501 45.6067 26.212C45.7105 26.1521 45.831 26.1245 45.9518 26.1328C46.0709 26.1257 46.1897 26.1521 46.2934 26.2086C46.4199 26.2929 46.4304 26.426 46.4322 26.5818H45.6831C45.6883 26.6973 45.7524 26.7714 45.9738 26.7714C46.1145 26.7684 46.2548 26.7555 46.3936 26.7326V26.8809C46.2371 26.9094 46.0785 26.926 45.9193 26.9306Z" fill="#939598"/>
<path d="M47.4107 26.9098V26.4885C47.4107 26.3512 47.3378 26.3015 47.2069 26.3015C47.0982 26.306 46.9904 26.3221 46.8855 26.3495V26.9064H46.665V26.1482H46.8451L46.853 26.1953C46.99 26.1571 47.1312 26.1342 47.2737 26.1271C47.3707 26.1199 47.4671 26.1475 47.5442 26.2046C47.5761 26.2354 47.6006 26.2726 47.6158 26.3135C47.631 26.3545 47.6365 26.3981 47.632 26.4414V26.9039L47.4107 26.9098Z" fill="#939598"/>
<path d="M48.2555 26.9307C48.2068 26.9353 48.1577 26.9277 48.113 26.9088C48.0682 26.89 48.0293 26.8604 47.9999 26.8229C47.9563 26.7541 47.936 26.674 47.9419 26.5937V26.3107H47.783V26.154H47.9419L47.9656 25.9248H48.1606V26.154H48.4706V26.3107H48.1606V26.5533C48.1575 26.6023 48.165 26.6513 48.1826 26.6974C48.1959 26.7218 48.2169 26.7417 48.2425 26.7542C48.2682 26.7668 48.2972 26.7713 48.3257 26.7673C48.3785 26.7664 48.4311 26.7614 48.4829 26.7521V26.9038C48.4081 26.9195 48.332 26.9286 48.2555 26.9307Z" fill="#939598"/>
<path d="M48.686 26.9097V26.1514H48.8617L48.8696 26.1986C48.9954 26.1579 49.1268 26.1349 49.2595 26.1304H49.2876V26.3107C49.2622 26.3107 49.2332 26.3107 49.2112 26.3107C49.1069 26.311 49.003 26.324 48.9021 26.3494V26.908L48.686 26.9097Z" fill="#939598"/>
<path d="M50.091 26.5923C49.9988 26.5847 49.9048 26.5805 49.8065 26.5805C49.6458 26.5805 49.5895 26.6117 49.5895 26.6824C49.5895 26.7532 49.637 26.7835 49.7599 26.7835C49.8716 26.7797 49.9826 26.7647 50.091 26.7389V26.5923ZM50.1376 26.9099L50.1288 26.8669C49.9894 26.9048 49.8458 26.9272 49.7011 26.9335C49.6174 26.9387 49.5341 26.9193 49.4622 26.8779C49.4331 26.8566 49.4099 26.8288 49.3946 26.7969C49.3793 26.7651 49.3723 26.7301 49.3744 26.6951C49.3722 26.6509 49.3845 26.6071 49.4096 26.57C49.4346 26.5328 49.4711 26.5041 49.514 26.4878C49.608 26.4546 49.7083 26.4408 49.8082 26.4474C49.8908 26.4474 50.0023 26.4516 50.0945 26.4575V26.4457C50.0945 26.3277 50.0129 26.289 49.7915 26.289C49.7037 26.289 49.601 26.2932 49.5008 26.3025V26.1491C49.6124 26.1407 49.7371 26.1348 49.8398 26.1348C49.9664 26.1241 50.0935 26.1483 50.2061 26.2047C50.2939 26.2662 50.3141 26.3513 50.3141 26.4642V26.9116L50.1376 26.9099Z" fill="#939598"/>
<path d="M50.5935 25.835H50.8139V26.91H50.5935V25.835Z" fill="#939598"/>
</svg>
