<svg width="60" height="41" viewBox="0 0 60 41" fill="none" xmlns="http://www.w3.org/2000/svg">
<path d="M8 0.5H52C56.1421 0.5 59.5 3.85786 59.5 8V33C59.5 37.1421 56.1421 40.5 52 40.5H8C3.85786 40.5 0.5 37.1421 0.5 33V8C0.5 3.85786 3.85786 0.5 8 0.5Z" fill="white" stroke="#D9D9D9"/>
<path fill-rule="evenodd" clip-rule="evenodd" d="M18.2147 27.7746H14.5798L11.8542 17.4121C11.7248 16.9354 11.4501 16.514 11.046 16.3154C10.0376 15.8163 8.92644 15.419 7.71423 15.2187V14.8197H13.5697C14.3778 14.8197 14.9839 15.419 15.0849 16.115L16.4992 23.5899L20.1322 14.8197H23.666L18.2147 27.7746ZM25.6864 27.7746H22.2536L25.0803 14.8197H28.5131L25.6864 27.7746ZM32.9542 18.4087C33.0552 17.7109 33.6613 17.312 34.3684 17.312C35.4796 17.2118 36.69 17.4121 37.7002 17.9095L38.3063 15.1203C37.2961 14.7213 36.185 14.521 35.1766 14.521C31.8448 14.521 29.4204 16.3154 29.4204 18.8059C29.4204 20.7005 31.1377 21.6953 32.3499 22.2946C33.6613 22.8922 34.1664 23.2912 34.0654 23.8887C34.0654 24.7851 33.0552 25.184 32.0468 25.184C30.8346 25.184 29.6224 24.8853 28.513 24.3861L27.9069 27.1771C29.1191 27.6745 30.4305 27.8748 31.6427 27.8748C35.3786 27.9733 37.7002 26.1806 37.7002 23.4898C37.7002 20.1012 32.9542 19.9026 32.9542 18.4087ZM49.7143 27.7746L46.9886 14.8197H44.0609C43.4548 14.8197 42.8487 15.2187 42.6466 15.8163L37.5993 27.7746H41.1332L41.8385 25.8817H46.1805L46.5845 27.7746H49.7143ZM44.5659 18.3086L45.5743 23.191H42.7476L44.5659 18.3086Z" fill="#172B85"/>
</svg>
